<svg id="Layer_1" data-name="Layer 1" xmlns="http://www.w3.org/2000/svg" viewBox="0 0 32 29.424"><title>CosmosDB_rgb_mono_darktheme</title><path d="M4.673,8.96a.324.324,0,0,1-.325-.323A3.694,3.694,0,0,0,.65,4.955a.323.323,0,1,1,0-.645A3.693,3.693,0,0,0,4.348.628.325.325,0,0,1,5,.628a3.694,3.694,0,0,0,3.7,3.682.323.323,0,1,1,0,.646A3.694,3.694,0,0,0,5,8.638.324.324,0,0,1,4.673,8.96Z" transform="translate(-0.326 -0.305)" fill="#f2f2f2"/><path d="M27.475,29.729a.194.194,0,0,1-.194-.193,2.209,2.209,0,0,0-2.211-2.2.193.193,0,1,1,0-.386,2.209,2.209,0,0,0,2.211-2.2.194.194,0,0,1,.388,0,2.209,2.209,0,0,0,2.211,2.2.193.193,0,1,1,0,.386,2.209,2.209,0,0,0-2.211,2.2A.193.193,0,0,1,27.475,29.729Z" transform="translate(-0.326 -0.305)" fill="#f2f2f2"/><path d="M11.823,25.392a10.534,10.534,0,0,0,15.237-9.366,48.365,48.365,0,0,1-7.219,5.343A48.458,48.458,0,0,1,11.823,25.392Z" transform="translate(-0.326 -0.305)" fill="#f2f2f2"/><path d="M18.094,18.511a42.517,42.517,0,0,0,7.7-5.9c.191-.19.361-.364.522-.531a10.45,10.45,0,0,0-1.956-3.164A10.581,10.581,0,0,0,6.219,13.539a10.545,10.545,0,0,0,2.352,9.38c.243-.071.482-.139.747-.225A42.76,42.76,0,0,0,18.094,18.511Z" transform="translate(-0.326 -0.305)" fill="#f2f2f2"/><path d="M31.905,6.486C30.9,4.834,28.362,4.453,24.577,5.379a30.145,30.145,0,0,0-3.471,1.105,10.659,10.659,0,0,1,2.049,1.308c.644-.212,1.276-.4,1.878-.549a13.219,13.219,0,0,1,3.083-.437c1.239,0,1.923.306,2.151.679.374.612.03,2.228-2.17,4.77-.391.452-.832.91-1.294,1.371a44.055,44.055,0,0,1-7.963,6.106,43.82,43.82,0,0,1-9.08,4.323c-3.829,1.247-6.444,1.222-7.029.265s.585-3.3,3.444-6.139a10.46,10.46,0,0,1-.235-2.46c-4.55,4.112-6.023,7.677-4.847,9.6C1.709,26.328,3.054,26.9,5.019,26.9a19.988,19.988,0,0,0,6.8-1.5,48.444,48.444,0,0,0,8.026-4.026,48.366,48.366,0,0,0,7.221-5.345,29.818,29.818,0,0,0,2.487-2.513C32.1,10.566,32.915,8.136,31.905,6.486Z" transform="translate(-0.326 -0.305)" fill="#f2f2f2"/></svg>