<?xml version="1.0" encoding="UTF-8"?>
<svg width="30px" height="24px" viewBox="0 0 30 24" version="1.1" xmlns="http://www.w3.org/2000/svg" xmlns:xlink="http://www.w3.org/1999/xlink">
    <!-- Generator: Sketch 49.3 (51167) - http://www.bohemiancoding.com/sketch -->
    <title>Shape</title>
    <desc>Created with Sketch.</desc>
    <defs></defs>
    <g id="//build-2018-color-canvas" stroke="none" stroke-width="1" fill="none" fill-rule="evenodd">
        <g id="Build_pxdraw_01_Log-in" transform="translate(-1878.000000, -199.000000)" fill="#FFFFFF" fill-rule="nonzero">
            <path d="M1907.6,202 C1906.6,202.4 1905.4,202.8 1904.2,203 C1905.4,202.2 1906.4,201 1906.8,199.6 C1905.6,200.2 1904.4,200.8 1903,201 C1901.8,199.8 1900.4,199 1898.6,199 C1895.2,199 1892.6,201.8 1892.6,205 C1892.6,205.4 1892.6,206 1892.8,206.4 C1887.8,206.2 1883.2,203.8 1880.4,200 C1879.8,200.8 1879.6,202 1879.6,203 C1879.6,205.2 1880.6,207 1882.2,208 C1881.2,208 1880.2,207.6 1879.4,207.2 C1879.4,210.2 1881.4,212.6 1884.2,213.2 C1883.6,213.4 1883.2,213.4 1882.6,213.4 C1882.2,213.4 1881.8,213.4 1881.4,213.2 C1882.2,215.6 1884.4,217.4 1887,217.4 C1885,219 1882.4,220 1879.4,220 C1879,220 1878.4,220 1878,220 C1880.6,221.8 1883.8,222.8 1887.2,222.8 C1898.4,222.8 1904.4,213.6 1904.4,205.6 C1904.4,205.4 1904.4,205 1904.4,204.8 C1905.8,204.4 1906.8,203.4 1907.6,202 Z" id="Shape"></path>
        </g>
    </g>
</svg>