<?xml version="1.0" encoding="UTF-8"?>
<svg width="16px" height="16px" viewBox="0 0 16 16" version="1.1" xmlns="http://www.w3.org/2000/svg" xmlns:xlink="http://www.w3.org/1999/xlink">
    <!-- Generator: Sketch 49.3 (51167) - http://www.bohemiancoding.com/sketch -->
    <title>e1a4</title>
    <desc>Created with Sketch.</desc>
    <defs></defs>
    <g id="//build-2018-color-canvas" stroke="none" stroke-width="1" fill="none" fill-rule="evenodd">
        <g id="Build_pxdraw_01_Log-in" transform="translate(-1885.000000, -1032.000000)" fill="#000000" fill-rule="nonzero">
            <g id="e1a4" transform="translate(1885.000000, 1032.000000)">
                <path d="M16,15.4531248 C16,15.5989584 15.9557291,15.7265627 15.8671877,15.8359376 C15.7786459,15.9453125 15.6562501,16 15.5,16 C15.3645835,16 15.2473957,15.9505211 15.1484373,15.8515627 L9.01562507,9.72656267 C8.51562507,10.1380208 7.967448,10.4531248 7.37109387,10.6718752 C6.77473973,10.8906251 6.1510416,11 5.5,11 C4.99479147,11 4.50781227,10.934896 4.0390624,10.8046875 C3.57031253,10.6744789 3.13281227,10.4895835 2.72656267,10.25 C2.32031253,10.0104165 1.94921867,9.722656 1.61328107,9.38671893 C1.277344,9.05078133 0.989583467,8.67968747 0.75,8.27343733 C0.510416533,7.86718773 0.325521067,7.42968747 0.195312533,6.9609376 C0.065104,6.49218773 0,6.00520853 0,5.5 C0,4.99479147 0.065104,4.50781227 0.195312533,4.0390624 C0.325521067,3.57031253 0.510416533,3.13281227 0.75,2.72656267 C0.989583467,2.32031253 1.277344,1.94921867 1.61328107,1.61328107 C1.94921867,1.277344 2.32031253,0.989583467 2.72656267,0.75 C3.13281227,0.510416533 3.57031253,0.325521067 4.0390624,0.195312533 C4.50781227,0.065104 4.99479147,0 5.5,0 C6.00520853,0 6.49218773,0.065104 6.9609376,0.195312533 C7.42968747,0.325521067 7.86718773,0.510416533 8.27343733,0.75 C8.67968747,0.989583467 9.05078133,1.277344 9.38671893,1.61328107 C9.722656,1.94921867 10.0104165,2.32031253 10.25,2.72656267 C10.4895835,3.13281227 10.6744789,3.57031253 10.8046875,4.0390624 C10.934896,4.50781227 11,4.99479147 11,5.5 C11,6.1510416 10.8906251,6.77473973 10.6718752,7.37109387 C10.4531248,7.967448 10.1380208,8.51562507 9.72656267,9.01562507 C9.80468747,9.09374987 9.9544272,9.24218773 10.1757813,9.4609376 C10.3971355,9.67968747 10.6627605,9.940104 10.972656,10.2421877 C11.282552,10.5442709 11.6210939,10.8763019 11.9882811,11.2382811 C12.3554688,11.6002603 12.7252603,11.967448 13.097656,12.3398437 C13.4700523,12.7122395 13.8307291,13.0755211 14.1796875,13.4296875 C14.5286459,13.7838544 14.8385419,14.1041664 15.1093749,14.3906251 C15.3802085,14.6770832 15.5963541,14.9153648 15.7578123,15.1054688 C15.9192709,15.2955728 16,15.4114581 16,15.4531248 Z M5.5,10 C6.11979147,10 6.7031248,9.8815104 7.25,9.6445312 C7.7968752,9.407552 8.27343733,9.0859376 8.67968747,8.67968747 C9.0859376,8.27343733 9.407552,7.7968752 9.6445312,7.25 C9.8815104,6.7031248 10,6.11979147 10,5.5 C10,4.88020853 9.8815104,4.2968752 9.6445312,3.75 C9.407552,3.2031248 9.0859376,2.72656267 8.67968747,2.32031253 C8.27343733,1.9140624 7.7968752,1.592448 7.25,1.3554688 C6.7031248,1.1184896 6.11979147,1 5.5,1 C4.88020853,1 4.2968752,1.1184896 3.75,1.3554688 C3.2031248,1.592448 2.72656267,1.9140624 2.32031253,2.32031253 C1.9140624,2.72656267 1.592448,3.2031248 1.3554688,3.75 C1.1184896,4.2968752 1,4.88020853 1,5.5 C1,6.11979147 1.1184896,6.7031248 1.3554688,7.25 C1.592448,7.7968752 1.9140624,8.27343733 2.32031253,8.67968747 C2.72656267,9.0859376 3.2031248,9.407552 3.75,9.6445312 C4.2968752,9.8815104 4.88020853,10 5.5,10 Z M3,5 L8,5 L8,6 L3,6 L3,5 Z" id="Shape"></path>
            </g>
        </g>
    </g>
</svg>