<?xml version="1.0" encoding="UTF-8"?>
<svg width="16px" height="16px" viewBox="0 0 16 16" version="1.1" xmlns="http://www.w3.org/2000/svg" xmlns:xlink="http://www.w3.org/1999/xlink">
    <!-- Generator: Sketch 49.3 (51167) - http://www.bohemiancoding.com/sketch -->
    <title>e12e</title>
    <desc>Created with Sketch.</desc>
    <defs></defs>
    <g id="//build-2018-color-canvas" stroke="none" stroke-width="1" fill="none" fill-rule="evenodd">
        <g id="Build_pxdraw_01_Log-in" transform="translate(-1885.000000, -1001.000000)" fill="#000000" fill-rule="nonzero">
            <g id="e12e" transform="translate(1885.000000, 1001.000000)">
                <path d="M15.8515627,15.1484373 C15.9505211,15.2473957 16,15.3645835 16,15.5 C16,15.6354165 15.9505211,15.7526043 15.8515627,15.8515627 C15.7526043,15.9505211 15.6354165,16 15.5,16 C15.3645835,16 15.2473957,15.9505211 15.1484373,15.8515627 L9.01562507,9.72656267 C8.51562507,10.1380208 7.967448,10.4531248 7.37109387,10.6718752 C6.77473973,10.8906251 6.1510416,11 5.5,11 C4.99479147,11 4.50781227,10.934896 4.0390624,10.8046875 C3.57031253,10.6744789 3.13281227,10.4895835 2.72656267,10.25 C2.32031253,10.0104165 1.94921867,9.722656 1.61328107,9.38671893 C1.277344,9.05078133 0.989583467,8.67968747 0.75,8.27343733 C0.510416533,7.86718773 0.325521067,7.42968747 0.195312533,6.9609376 C0.065104,6.49218773 0,6.00520853 0,5.5 C0,4.99479147 0.065104,4.50781227 0.195312533,4.0390624 C0.325521067,3.57031253 0.510416533,3.13281227 0.75,2.72656267 C0.989583467,2.32031253 1.277344,1.94921867 1.61328107,1.61328107 C1.94921867,1.277344 2.32031253,0.989583467 2.72656267,0.75 C3.13281227,0.510416533 3.57031253,0.325521067 4.0390624,0.195312533 C4.50781227,0.065104 4.99479147,0 5.5,0 C6.00520853,0 6.49218773,0.065104 6.9609376,0.195312533 C7.42968747,0.325521067 7.86718773,0.510416533 8.27343733,0.75 C8.67968747,0.989583467 9.05078133,1.277344 9.38671893,1.61328107 C9.722656,1.94921867 10.0104165,2.32031253 10.25,2.72656267 C10.4895835,3.13281227 10.6744789,3.57031253 10.8046875,4.0390624 C10.934896,4.50781227 11,4.99479147 11,5.5 C11,6.1510416 10.8906251,6.77473973 10.6718752,7.37109387 C10.4531248,7.967448 10.1380208,8.51562507 9.72656267,9.01562507 L15.8515627,15.1484373 Z M5.5,10 C6.11979147,10 6.7031248,9.8815104 7.25,9.6445312 C7.7968752,9.407552 8.27343733,9.0859376 8.67968747,8.67968747 C9.0859376,8.27343733 9.407552,7.7968752 9.6445312,7.25 C9.8815104,6.7031248 10,6.11979147 10,5.5 C10,4.88020853 9.8815104,4.2968752 9.6445312,3.75 C9.407552,3.2031248 9.0859376,2.72656267 8.67968747,2.32031253 C8.27343733,1.9140624 7.7968752,1.592448 7.25,1.3554688 C6.7031248,1.1184896 6.11979147,1 5.5,1 C4.88020853,1 4.2968752,1.1184896 3.75,1.3554688 C3.2031248,1.592448 2.72656267,1.9140624 2.32031253,2.32031253 C1.9140624,2.72656267 1.592448,3.2031248 1.3554688,3.75 C1.1184896,4.2968752 1,4.88020853 1,5.5 C1,6.11979147 1.1184896,6.7031248 1.3554688,7.25 C1.592448,7.7968752 1.9140624,8.27343733 2.32031253,8.67968747 C2.72656267,9.0859376 3.2031248,9.407552 3.75,9.6445312 C4.2968752,9.8815104 4.88020853,10 5.5,10 Z M6,5 L8,5 L8,6 L6,6 L6,8 L5,8 L5,6 L3,6 L3,5 L5,5 L5,3 L6,3 L6,5 Z" id="Shape"></path>
            </g>
        </g>
    </g>
</svg>